<?xml version="1.0" encoding="UTF-8" standalone="no"?><!DOCTYPE svg PUBLIC "-//W3C//DTD SVG 1.1//EN" "http://www.w3.org/Graphics/SVG/1.1/DTD/svg11.dtd"><svg width="100%" height="100%" viewBox="0 0 329 98" version="1.1" xmlns="http://www.w3.org/2000/svg" xmlns:xlink="http://www.w3.org/1999/xlink" xml:space="preserve" xmlns:serif="http://www.serif.com/" style="fill-rule:evenodd;clip-rule:evenodd;stroke-linejoin:round;stroke-miterlimit:2;"><g><clipPath id="_clip1"><rect x="0.108" y="0.108" width="327.966" height="97.129"/></clipPath><g clip-path="url(#_clip1)"><g><path d="M37.171,97.698c19.475,0 30.513,-13.749 30.513,-26.696c0,-36.65 -50.551,-26.718 -50.551,-53.826c0,-8.176 5.183,-13.489 14.031,-13.489c12.947,0 21.405,10.496 26.436,19.887l6.419,11.32l0.954,-0.282l-2.32,-30.925l-0.824,0l-9.954,8.458c-5.313,-5.725 -11.971,-9.824 -20.711,-9.824c-14.573,0 -28.062,10.366 -28.062,24.94c0,35.566 50.551,23.985 50.551,52.872c0,8.718 -5.725,16.07 -16.894,16.07c-12.947,0 -21.947,-8.306 -28.214,-19.887l-7.482,-13.901l-0.954,0.282l3.535,33.636l0.824,0l10.757,-7.612c7.092,6.116 13.229,8.978 21.947,8.978Zm66.491,-85.423c0,-5.465 -4.359,-9.542 -9.672,-9.542c-5.443,0 -9.802,4.077 -9.802,9.542c0,6.137 4.489,9.932 9.802,9.932c5.313,0 9.672,-3.795 9.672,-9.932Zm10.214,84.751l0,-0.802l-11.038,-0.694l0,-66.014l-27.65,0.542l0,0.824l11.038,0.542l0,64.105l-11.038,0.694l0,0.802l38.689,0Zm77.291,0.217c4.142,-5.118 5.855,-10.475 4.814,-15.94c-2.451,-12.708 -16.612,-18.434 -39.339,-16.135l-21.903,2.277c1.28,-3.426 3.21,-7.829 5.075,-11.104c3.817,0.369 7.829,0.304 11.841,-0.477c15.397,-2.971 27.846,-14.66 25.005,-29.385c-1.063,-5.487 -3.99,-9.911 -7.937,-13.034l17.132,-3.318l-1.93,-10.019l-1.345,0.239l-14.638,12.557c-6.658,-4.966 -16.265,-6.593 -25.503,-4.793c-15.376,2.971 -27.78,14.92 -24.918,29.776c2.017,10.431 10.561,16.569 20.884,18.325c-4.381,8.891 -7.265,15.549 -10.93,26.111l18.759,-2.104c-10.258,4.424 -16.742,10.518 -18.13,17.024m23.313,-42.571c-9.629,1.843 -14.508,-1.93 -17.978,-19.843c-3.535,-18.347 -0.39,-23.66 9.238,-25.525c9.629,-1.865 14.53,1.908 18.065,20.255c3.448,17.913 0.586,23.183 -9.325,25.113Zm-12.296,42.571c-0.564,-5.92 1.865,-10.822 8.349,-17.111l8.545,-0.954c17.956,-1.952 27.325,2.776 29.082,11.863c0.434,2.255 0.347,4.099 -0.347,6.202m44.826,-84.968c0,-5.465 -4.359,-9.542 -9.694,-9.542c-5.443,0 -9.802,4.077 -9.802,9.542c0,6.137 4.489,9.932 9.802,9.932c5.335,0 9.694,-3.795 9.694,-9.932Zm10.214,84.751l0,-0.802l-11.038,-0.694l0,-66.014l-27.672,0.542l0,0.824l11.038,0.542l0,64.105l-11.038,0.694l0,0.802l38.711,0Zm44.154,0l0,-0.802l-11.038,-0.694l-0.304,-92.797l-27.65,0.542l0,0.824l11.038,0.542l0.282,90.888l-11.038,0.694l0,0.802l38.711,0Zm44.132,0l0,-0.802l-11.038,-0.694l-0.282,-92.797l-27.672,0.542l0,0.824l11.038,0.542l0.304,90.888l-11.038,0.694l0,0.802l38.689,0Z" style="stroke:#000;stroke-width:0.22px;"/></g></g></g></svg>