<?xml version="1.0" encoding="UTF-8" standalone="no"?><!DOCTYPE svg PUBLIC "-//W3C//DTD SVG 1.1//EN" "http://www.w3.org/Graphics/SVG/1.1/DTD/svg11.dtd"><svg width="6306px" height="1880px" version="1.1" xmlns="http://www.w3.org/2000/svg" xmlns:xlink="http://www.w3.org/1999/xlink" xml:space="preserve" xmlns:serif="http://www.serif.com/" style="fill-rule:evenodd;clip-rule:evenodd;stroke-linejoin:round;stroke-miterlimit:2;"><g transform="matrix(1,0,0,1,-0.002083,-74.923117)"><g transform="matrix(4.166667,0,0,4.166667,-2014.552083,-703.24355)"><path d="M654.9,637.3C744.7,637.3 795.6,573.9 795.6,514.2C795.6,345.2 562.5,391 562.5,266C562.5,228.3 586.4,203.8 627.2,203.8C686.9,203.8 725.9,252.2 749.1,295.5L778.7,347.7L783.1,346.4L772.4,203.8L768.6,203.8L722.7,242.8C698.2,216.4 667.5,197.5 627.2,197.5C560,197.5 497.8,245.3 497.8,312.5C497.8,476.5 730.9,423.1 730.9,556.3C730.9,596.5 704.5,630.4 653,630.4C593.3,630.4 551.8,592.1 522.9,538.7L488.4,474.6L484,475.9L500.3,631L504.1,631L553.7,595.9C586.4,624.1 614.7,637.3 654.9,637.3ZM961.5,243.4C961.5,218.2 941.4,199.4 916.9,199.4C891.8,199.4 871.7,218.2 871.7,243.4C871.7,271.7 892.4,289.2 916.9,289.2C941.4,289.2 961.5,271.7 961.5,243.4ZM1008.6,634.2L1008.6,630.5L957.7,627.3L957.7,322.9L830.2,325.4L830.2,329.2L881.1,331.7L881.1,627.3L830.2,630.5L830.2,634.2L1008.6,634.2ZM1365,635.2C1384.1,611.6 1392,586.9 1387.2,561.7C1375.9,503.1 1310.6,476.7 1205.8,487.3L1104.8,497.8C1110.7,482 1119.6,461.7 1128.2,446.6C1145.8,448.3 1164.3,448 1182.8,444.4C1253.8,430.7 1311.2,376.8 1298.1,308.9C1293.2,283.6 1279.7,263.2 1261.5,248.8L1340.5,233.5L1331.6,187.3L1325.4,188.4L1257.9,246.3C1227.2,223.4 1182.9,215.9 1140.3,224.2C1069.4,237.9 1012.2,293 1025.4,361.5C1034.7,409.6 1074.1,437.9 1121.7,446C1101.5,487 1088.2,517.7 1071.3,566.4L1157.8,556.7C1110.5,577.1 1080.6,605.2 1074.2,635.2M1181.7,438.9C1137.3,447.4 1114.8,430 1098.8,347.4C1082.5,262.8 1097,238.3 1141.4,229.7C1185.8,221.1 1208.4,238.5 1224.7,323.1C1240.6,405.7 1227.4,430 1181.7,438.9ZM1125,635.2C1122.4,607.9 1133.6,585.3 1163.5,556.3L1202.9,551.9C1285.7,542.9 1328.9,564.7 1337,606.6C1339,617 1338.6,625.5 1335.4,635.2M1542.1,243.4C1542.1,218.2 1522,199.4 1497.4,199.4C1472.3,199.4 1452.2,218.2 1452.2,243.4C1452.2,271.7 1472.9,289.2 1497.4,289.2C1522,289.2 1542.1,271.7 1542.1,243.4ZM1589.2,634.2L1589.2,630.5L1538.3,627.3L1538.3,322.9L1410.7,325.4L1410.7,329.2L1461.6,331.7L1461.6,627.3L1410.7,630.5L1410.7,634.2L1589.2,634.2ZM1792.8,634.2L1792.8,630.5L1741.9,627.3L1740.5,199.4L1613,201.9L1613,205.7L1663.9,208.2L1665.2,627.3L1614.3,630.5L1614.3,634.2L1792.8,634.2ZM1996.3,634.2L1996.3,630.5L1945.4,627.3L1944.1,199.4L1816.5,201.9L1816.5,205.7L1867.4,208.2L1868.8,627.3L1817.9,630.5L1817.9,634.2L1996.3,634.2Z" style="stroke:black;stroke-width:1px;"/></g></g></svg>